<?xml version="1.0" encoding="utf-8"?>
<svg width="800px" height="800px" viewBox="0 0 34.5 35.5" xmlns="http://www.w3.org/2000/svg" aria-hidden="true" role="img" class="iconify iconify--twemoji" preserveAspectRatio="xMidYMid meet">
  <path fill="#31373D" d="M 23.231 13.445 L 11.231 13.445 C 11.231 13.445 6.231 19.445 6.231 23.445 C 6.231 27.445 17.231 34.445 17.231 34.445 C 17.231 34.445 28.231 27.445 28.231 23.445 C 28.231 19.445 23.231 13.445 23.231 13.445 Z"/>
  <path fill="#292F33" d="M 18.871 0.725 C 17.97 0.021 16.494 0.021 15.593 0.725 L 0.87 12.221 C -0.031 12.925 -0.031 14.077 0.87 14.781 L 15.592 26.276 C 16.494 26.98 17.969 26.98 18.87 26.276 L 33.592 14.781 C 34.494 14.077 34.494 12.925 33.592 12.221 L 18.871 0.725 Z"/>
  <path fill="#394146" d="M 18.871 0.725 C 17.97 0.021 16.494 0.021 15.593 0.725 L 0.87 12.221 C -0.031 12.925 -0.031 14.077 0.87 14.781 L 15.592 26.276 C 16.493 26.98 17.969 26.98 18.87 26.276 L 33.593 14.781 C 34.494 14.077 34.494 12.925 33.593 12.221 L 18.871 0.725 Z"/>
  <path fill="#FCAB40" d="M 7.231 24.445 C 7.231 24.445 5.231 26.445 5.231 27.445 L 5.231 33.445 C 5.231 33.445 5.231 35.445 7.231 35.445 C 9.231 35.445 9.231 33.445 9.231 33.445 L 9.231 27.445 C 9.231 26.445 7.231 24.445 7.231 24.445 Z"/>
  <circle fill="#FDD888" cx="7.231" cy="25.445" r="3"/>
  <path fill="#FCAB40" d="M 7.232 26.445 C 6.68 26.445 6.232 25.997 6.232 25.445 L 6.232 21.487 C 6.19 20.853 6.419 19.451 7.549 18.603 L 16.571 10.693 C 17.157 10.194 18.064 10.517 18.203 11.274 C 18.265 11.615 18.146 11.965 17.889 12.197 L 8.809 20.155 C 8.205 20.611 8.231 21.427 8.231 21.435 L 8.233 25.445 C 8.233 25.998 7.785 26.446 7.232 26.445 Z"/>
  <circle fill="#31373D" cx="17.231" cy="12.445" r="3"/>
</svg>