<?xml version="1.0" encoding="iso-8859-1"?>
<!-- Uploaded to: SVG Repo, www.svgrepo.com, Generator: SVG Repo Mixer Tools -->
<svg xmlns="http://www.w3.org/2000/svg" xmlns:xlink="http://www.w3.org/1999/xlink" version="1.1" id="Capa_1"  viewBox="0 0 455 455" xml:space="preserve" width="512" height="512">
<g>
	<path style="fill:#FFE29E;" d="M360.651,376.42h-30l1.2,46.55l28.8,0.03c12.86,0,23.29-10.43,23.29-23.29   S373.511,376.42,360.651,376.42z"/>
	<path style="fill:#FFF1CF;" d="M330.651,376.42c12.86,0,23.29,10.43,23.29,23.29c0,12.46-9.79,22.64-22.09,23.26   c-0.06,0-0.11,0.01-0.17,0l-117.86-0.1v-46.45H330.651z"/>
	<path style="fill:#FFA4A9;" d="M360.651,408.42h-30l1.2,46.55l28.8,0.03c12.86,0,23.29-10.43,23.29-23.29   S373.511,408.42,360.651,408.42z"/>
	<path style="fill:#FFC5BB;" d="M330.651,408.42c12.86,0,23.29,10.43,23.29,23.29c0,12.46-9.79,22.64-22.09,23.26   c-0.06,0-0.11,0.01-0.17,0l-117.86-0.1c-5.31,0-13.45-2.14-18.08-4.74l-149.39-92.25c-4.63-2.61-12.77-4.74-18.09-4.74H0.001V260   h107.97l121.19,148.42H330.651z"/>
	<path style="fill:#FFA4A9;" d="M157.464,280.499l88.168,88.168c9.095,9.095,9.095,23.84,0,32.935   c-9.095,9.095-23.84,9.095-32.935,0l-71.656-71.656l-40.085,0c-38.63,0-69.946-31.316-69.946-69.946h76.965   C123.919,260,146.189,269.225,157.464,280.499z"/>
	<path style="fill:#E44670;" d="M366.969,0c-2.61,0-5.19,0.11-7.74,0.34l-69.21,300.64C292.559,299.6,455,210.37,455,88.03   C455,39.41,415.589,0,366.969,0z"/>
	<path style="fill:#FF6288;" d="M359.229,0.34c36.85,3.87,65.77,41.65,65.77,87.69c0,122.22-132.65,211.39-134.98,212.95   c-0.03,0.02-165.03-89.65-165.03-212.95c0-48.62,39.41-88.03,88.03-88.03c33.14,0,61.96,18.35,76.97,45.42   C303.819,20.48,329.369,2.94,359.229,0.34z"/>
</g>















</svg>