<?xml version="1.0" encoding="iso-8859-1"?>
<!-- Uploaded to: SVG Repo, www.svgrepo.com, Generator: SVG Repo Mixer Tools -->
<svg height="800px" width="800px" version="1.1" id="Layer_1" xmlns="http://www.w3.org/2000/svg" xmlns:xlink="http://www.w3.org/1999/xlink" 
	 viewBox="0 0 511.999 511.999" xml:space="preserve">
<path style="fill:#F4C063;" d="M243.397,340.902c0-17.216,11.854-31.173,26.476-31.173c18.278,0,33.096,17.445,33.096,38.966
	c0,26.9-31.878,53.199-59.571,67.357c-27.693-14.157-59.572-40.457-59.572-67.357c0-21.52,14.817-38.966,33.096-38.966
	C231.543,309.73,243.397,323.686,243.397,340.902z"/>
<path d="M134.196,222.201v-7.718c0-21.846-13.734-40.533-33.017-47.912c7.188-7.759,11.592-18.129,11.592-29.514v-6.304
	c0-23.971-19.502-43.473-43.473-43.473H8.667C3.881,87.28,0,91.161,0,95.947v168.874c0,4.787,3.881,8.667,8.667,8.667h74.242
	C111.188,273.488,134.196,250.481,134.196,222.201z M17.334,104.614h51.963c14.413,0,26.139,11.726,26.139,26.139v6.304
	c0,14.413-11.726,26.139-26.139,26.139H17.334V104.614z M17.334,180.53h51.963h13.612c18.721,0,33.952,15.231,33.952,33.953v7.718
	c0,18.722-15.231,33.953-33.952,33.953H17.334V180.53z"/>
<path d="M261.444,256.154h-41.006c-4.787,0-8.667,3.881-8.667,8.667c0,4.787,3.881,8.667,8.667,8.667h41.006
	c4.788,0,8.667-3.881,8.667-8.667C270.111,260.035,266.231,256.154,261.444,256.154z"/>
<path d="M205.993,264.821c0-4.787-3.881-8.667-8.667-8.667h-24.029v-67.103h29.291c4.787,0,8.667-3.881,8.667-8.667
	s-3.881-8.667-8.667-8.667h-29.291v-67.103h88.147c4.788,0,8.667-3.881,8.667-8.667s-3.879-8.667-8.667-8.667H164.63
	c-4.787,0-8.667,3.881-8.667,8.667v168.874c0,4.787,3.881,8.667,8.667,8.667h32.696
	C202.112,273.488,205.993,269.608,205.993,264.821z"/>
<path d="M395.259,222.603c0-28.058-22.827-50.886-50.885-50.886h-12.377c-18.5,0-33.551-15.051-33.551-33.551
	s15.051-33.552,33.551-33.552h12.377c18.5,0,33.551,15.051,33.551,33.552v3.33c0,4.787,3.879,8.667,8.667,8.667
	s8.667-3.881,8.667-8.667v-3.33c0-28.058-22.827-50.886-50.885-50.886h-12.377c-28.058,0-50.885,22.827-50.885,50.886
	c0,28.058,22.827,50.885,50.885,50.885h12.377c18.5,0,33.551,15.051,33.551,33.552c0,18.5-15.051,33.551-33.551,33.551h-12.377
	c-18.5,0-33.551-15.051-33.551-33.551v-3.33c0-4.787-3.879-8.667-8.667-8.667c-4.788,0-8.667,3.881-8.667,8.667v3.33
	c0,28.058,22.827,50.885,50.885,50.885h12.377C372.432,273.488,395.259,250.662,395.259,222.603z"/>
<path d="M464.824,264.821v-94.914c0-4.787-3.879-8.667-8.667-8.667c-4.788,0-8.667,3.881-8.667,8.667v94.914
	c0,4.787,3.879,8.667,8.667,8.667C460.945,273.488,464.824,269.608,464.824,264.821z"/>
<path d="M503.333,87.28h-94.35c-4.788,0-8.667,3.881-8.667,8.667s3.879,8.667,8.667,8.667h38.507v42.18
	c0,4.787,3.879,8.667,8.667,8.667c4.788,0,8.667-3.881,8.667-8.667v-42.18h38.507c4.788,0,8.667-3.881,8.667-8.667
	S508.119,87.28,503.333,87.28z"/>
<path d="M269.873,301.063c-10.55,0-20.029,5.296-26.476,13.669c-6.447-8.372-15.927-13.669-26.476-13.669
	c-23.028,0-41.762,21.368-41.762,47.633c0,31.152,34.634,59.912,64.293,75.073c1.239,0.633,2.592,0.95,3.945,0.95
	c1.353,0,2.706-0.317,3.945-0.95c29.659-15.163,64.293-43.921,64.293-75.073C311.635,322.431,292.9,301.063,269.873,301.063z
	 M243.397,406.245c-25.225-13.833-50.904-36.916-50.904-57.549c0-16.707,10.958-30.299,24.427-30.299
	c9.82,0,17.809,10.095,17.809,22.506c0,4.787,3.881,8.667,8.667,8.667c4.787,0,8.667-3.881,8.667-8.667
	c0-12.41,7.99-22.506,17.809-22.506c13.47,0,24.428,13.592,24.428,30.299C294.301,369.328,268.622,392.411,243.397,406.245z"/>
<path d="M142.126,295.591c-3.459-1.227-7.313-0.147-9.626,2.7l-49.11,60.415L34.28,298.29c-2.312-2.845-6.169-3.928-9.626-2.7
	c-3.456,1.228-5.767,4.499-5.767,8.167v110.161c0,4.787,3.881,8.667,8.667,8.667s8.667-3.881,8.667-8.667v-85.758l40.443,49.754
	c1.646,2.025,4.116,3.2,6.726,3.2c2.609,0,5.08-1.175,6.726-3.2l40.443-49.754v28.956c0,4.787,3.881,8.667,8.667,8.667
	s8.667-3.881,8.667-8.667v-53.358C147.893,300.09,145.583,296.818,142.126,295.591z"/>
<path d="M139.226,371.561c-4.787,0-8.667,3.881-8.667,8.667v33.691c0,4.787,3.881,8.667,8.667,8.667s8.667-3.881,8.667-8.667
	v-33.691C147.893,375.441,144.012,371.561,139.226,371.561z"/>
<path d="M462.139,295.591c-3.453-1.228-7.312-0.147-9.625,2.7l-49.11,60.415l-49.11-60.415c-2.314-2.846-6.172-3.927-9.625-2.7
	c-3.458,1.228-5.766,4.499-5.766,8.167v110.161c0,4.787,3.879,8.667,8.667,8.667s8.667-3.881,8.667-8.667v-85.758l40.443,49.754
	c1.646,2.025,4.116,3.2,6.725,3.2s5.08-1.175,6.725-3.2l40.443-49.754v85.758c0,4.787,3.879,8.667,8.667,8.667
	s8.667-3.881,8.667-8.667V303.757C467.905,300.09,465.596,296.818,462.139,295.591z"/>
</svg>