<?xml version="1.0" encoding="iso-8859-1"?>
<!-- Uploaded to: SVG Repo, www.svgrepo.com, Generator: SVG Repo Mixer Tools -->
<svg version="1.1" id="Layer_1" xmlns="http://www.w3.org/2000/svg" xmlns:xlink="http://www.w3.org/1999/xlink" 
	 viewBox="0 0 512 512" xml:space="preserve">
<rect x="56.555" y="8.93" style="fill:#74C194;" width="398.904" height="125.217"/>
<rect x="78.807" y="134.147" style="fill:#E6E6E6;" width="354.386" height="368.924"/>
<rect x="78.807" y="134.147" style="fill:#CCCCCC;" width="354.386" height="33.718"/>
<g>
	<circle style="fill:#EC589B;" cx="176.819" cy="70.842" r="19.645"/>
	<circle style="fill:#EC589B;" cx="335.171" cy="70.842" r="19.645"/>
	<path style="fill:#EC589B;" d="M256.001,363.046c0-19.278,13.274-34.908,29.649-34.908c20.468,0,37.06,19.536,37.06,43.634
		c0,30.124-35.697,59.574-66.709,75.427c-31.012-15.854-66.709-45.304-66.709-75.427c0-24.098,16.592-43.634,37.06-43.634
		C242.726,328.138,256.001,343.766,256.001,363.046z"/>
</g>
<path d="M455.45,0h-73.738c-4.933,0-8.93,3.998-8.93,8.93s3.997,8.93,8.93,8.93h64.809v107.361h-13.328H78.81H65.481V17.859h286.465
	c4.933,0,8.93-3.998,8.93-8.93S356.879,0,351.946,0H56.551c-4.932,0-8.93,3.998-8.93,8.93V134.15c0,4.932,3.998,8.93,8.93,8.93
	H69.88v196.822c0,4.932,3.998,8.93,8.93,8.93c4.932,0,8.93-3.998,8.93-8.93V143.08h336.522v351.061H87.739V369.667
	c0-4.932-3.998-8.93-8.93-8.93c-4.932,0-8.93,3.998-8.93,8.93V503.07c0,4.932,3.998,8.93,8.93,8.93h354.382
	c4.933,0,8.93-3.998,8.93-8.93V143.08h13.328c4.933,0,8.93-3.998,8.93-8.93V8.93C464.38,3.998,460.383,0,455.45,0z"/>
<path d="M148.25,70.842c0,15.757,12.819,28.575,28.575,28.575s28.575-12.818,28.575-28.575s-12.819-28.575-28.575-28.575
	S148.25,55.085,148.25,70.842z M187.54,70.842c0,5.909-4.808,10.716-10.716,10.716s-10.716-4.807-10.716-10.716
	s4.808-10.716,10.716-10.716S187.54,64.933,187.54,70.842z"/>
<path d="M335.178,42.267c-15.755,0-28.575,12.818-28.575,28.575s12.819,28.575,28.575,28.575c15.755,0,28.575-12.818,28.575-28.575
	S350.933,42.267,335.178,42.267z M335.178,81.557c-5.909,0-10.716-4.807-10.716-10.716s4.806-10.716,10.716-10.716
	c5.909,0,10.716,4.807,10.716,10.716S341.085,81.557,335.178,81.557z"/>
<path d="M180.363,371.772c0,34.534,38.556,66.498,71.573,83.378c1.276,0.652,2.671,0.979,4.065,0.979
	c1.393,0,2.788-0.326,4.065-0.979c33.017-16.879,71.574-48.844,71.574-83.378c0-28.984-20.631-52.563-45.99-52.563
	c-11.905,0-22.566,6.158-29.649,15.819c-7.082-9.661-17.744-15.819-29.648-15.819C200.994,319.209,180.363,342.789,180.363,371.772z
	 M226.353,337.068c11.424,0,20.718,11.654,20.718,25.978c0,4.932,3.998,8.93,8.93,8.93s8.93-3.998,8.93-8.93
	c0-14.324,9.295-25.978,20.719-25.978c15.511,0,28.131,15.568,28.131,34.704c0,17.273-17.907,43.853-57.779,65.342
	c-39.871-21.491-57.778-48.07-57.778-65.342C198.222,352.636,210.842,337.068,226.353,337.068z"/>
<path d="M194.052,185.105c-3.75-1.153-7.808,0.274-10.012,3.518l-29.424,43.319l-29.424-43.319
	c-2.204-3.243-6.264-4.671-10.012-3.518c-3.747,1.153-6.304,4.615-6.304,8.536v86.915c0,4.932,3.998,8.93,8.93,8.93
	s8.93-3.998,8.93-8.93v-57.876l20.494,30.173c1.662,2.447,4.428,3.912,7.387,3.912c2.959,0,5.724-1.464,7.387-3.912l20.494-30.173
	v14.006c0,4.932,3.998,8.93,8.93,8.93c4.932,0,8.93-3.998,8.93-8.93V193.64C200.356,189.718,197.799,186.257,194.052,185.105z"/>
<path d="M200.356,280.554v-20.057c0-4.932-3.998-8.93-8.93-8.93c-4.932,0-8.93,3.998-8.93,8.93v20.057c0,4.932,3.998,8.93,8.93,8.93
	C196.358,289.484,200.356,285.487,200.356,280.554z"/>
<path d="M394.198,289.484c4.933,0,8.93-3.998,8.93-8.93v-86.915c0-3.921-2.557-7.383-6.305-8.536
	c-3.748-1.153-7.809,0.275-10.011,3.518l-29.425,43.319l-29.425-43.319c-2.204-3.243-6.265-4.67-10.011-3.518
	c-3.747,1.153-6.305,4.615-6.305,8.536v86.915c0,4.932,3.997,8.93,8.93,8.93c4.933,0,8.93-3.998,8.93-8.93v-57.877L350,252.851
	c1.662,2.447,4.429,3.912,7.387,3.912s5.724-1.464,7.387-3.912l20.495-30.174v57.877
	C385.268,285.487,389.265,289.484,394.198,289.484z"/>
<path d="M301.74,237.097c0-28.887-20.519-52.387-45.74-52.387c-25.222,0-45.74,23.5-45.74,52.387s20.519,52.387,45.74,52.387
	C281.221,289.484,301.74,265.983,301.74,237.097z M228.12,237.097c0-19.039,12.507-34.528,27.881-34.528
	c15.373,0,27.881,15.489,27.881,34.528s-12.507,34.528-27.881,34.528S228.12,256.136,228.12,237.097z"/>
</svg>